<?xml version="1.0" encoding="utf-8"?>
<!-- Generator: Adobe Illustrator 26.0.1, SVG Export Plug-In . SVG Version: 6.00 Build 0)  -->
<svg version="1.1" xmlns="http://www.w3.org/2000/svg" xmlns:xlink="http://www.w3.org/1999/xlink" x="0px" y="0px"
	 viewBox="150 465 110 110" style="enable-background:new 0 0 1024 1024;" xml:space="preserve">
<style type="text/css">
	.st0{fill:url(#SVGID_1_);}
	.st1{fill:url(#SVGID_00000159459337716194457100000017673206088540780974_);}
	.st2{fill:url(#SVGID_00000034061012321294792320000012056087483246209978_);}
	.st3{fill:url(#SVGID_00000080193690134308463110000016469782099513387424_);}
	.st4{fill:url(#SVGID_00000065041740674641695170000018398966630761309629_);}
	.st5{fill:url(#SVGID_00000097476077604912340820000017976744624312080286_);}
	.st6{fill:url(#SVGID_00000183244142554389679200000006846882036349091762_);}
	.st7{fill:url(#SVGID_00000158001369350545415660000008358999547776965551_);}
	.st8{fill:url(#SVGID_00000093869420915467917450000004210575854522459556_);}
	.st9{fill:url(#SVGID_00000078036996217378952390000004615447629461703613_);}
	.st10{fill:url(#SVGID_00000047760026005807014150000008085875908850226838_);}
	.st11{fill:url(#SVGID_00000073712858858654292940000010682724751647470725_);}
	.st12{fill:url(#SVGID_00000013905068620430715110000006137067368470805155_);}
	.st13{fill:url(#SVGID_00000044136859315250132410000015656330580763647914_);}
	.st14{fill:url(#SVGID_00000034066824027425232370000012589322018373291922_);}
	.st15{fill:url(#SVGID_00000130609196856846121290000015831648441240967823_);}
	.st16{fill:url(#SVGID_00000034091044431829698850000005405395973653031046_);}
	.st17{fill:url(#SVGID_00000126324905965752420470000001911635885344165795_);}
	.st18{fill:url(#SVGID_00000015352246183790713510000011147712950149584574_);}
	.st19{fill:url(#SVGID_00000078752071583084754180000010475325820224179360_);}
	.st20{fill:url(#SVGID_00000159456250445834873920000006531467934440612262_);}
	.st21{fill:url(#SVGID_00000058549140756139822830000011558470463566055101_);}
	.st22{fill:url(#SVGID_00000108288471428436749870000007277010898367612069_);}
	.st23{fill:url(#SVGID_00000001662063477715946100000011757579403466613936_);}
	.st24{fill:url(#SVGID_00000148636480724874033160000017792867191324972989_);}
	.st25{fill:url(#SVGID_00000009571827764242537840000007756606495105396905_);}
	.st26{fill:url(#SVGID_00000058580934702024189270000001765508613498657179_);}
	.st27{fill:url(#SVGID_00000082357946632364737450000018291487353382534302_);}
	.st28{fill:url(#SVGID_00000149367333530521712090000011803044607808407428_);}
	.st29{fill:url(#SVGID_00000041254944764773936700000012826156157303857071_);}
	.st30{fill:url(#SVGID_00000102535811071111781190000001272819747165475980_);}
	.st31{fill:url(#SVGID_00000080923672145062738860000017176310032900591005_);}
	.st32{fill:url(#SVGID_00000163768664470222583810000008091954165855841938_);}
	.st33{fill:url(#SVGID_00000066508858021155584760000002345240902636180911_);}
	.st34{fill:url(#SVGID_00000083777064574861796210000009149031757215845548_);}
	.st35{fill:url(#SVGID_00000143593777495317170500000013218609219585759151_);}
	.st36{fill:url(#SVGID_00000102516948644703149160000010412614097068640147_);}
	.st37{fill:url(#SVGID_00000098920234945024554410000010567751050262234044_);}
	.st38{fill:url(#SVGID_00000168096176389811539900000004148203195601954962_);}
	.st39{fill:url(#SVGID_00000072999509786219221630000002700143303730681268_);}
	.st40{fill:url(#SVGID_00000060728969459027567880000007024058167498889136_);}
	.st41{fill:url(#SVGID_00000055696770431046641150000013224968197289392012_);}
	.st42{fill:url(#SVGID_00000054247592880076572150000005339766171296073360_);}
</style>
<g id="Layer_1">
</g>
<g id="Layer_3">
	<g fill="white">
		<path d="M249.32,474.71l-6.4,18.21c-0.34,0.96-1.23,1.6-2.24,1.62l-21.28,0.41c-0.75,0.01-1.47-0.28-1.99-0.82l-11.87-12.16h-4.02
			l7.24,11.78c0.29,0.47-0.05,1.06-0.59,1.07l-20.23,0.14c-0.43,0-0.86-0.05-1.27-0.16c-2.95-0.82-7.94-2.67-12.68-6.95
			c-3.9-3.52-6.1-7.3-7.27-9.75c0.92-0.72,2.35-1.67,4.27-2.36c1.73-0.62,3.28-0.83,4.39-0.89L249.32,474.71z"/>
		<path d="M251.92,530.63c-0.1,2.72-0.56,16.19-11.25,24.48c-4.38,3.39-8.99,4.84-12.48,5.48c-0.76,0.14-1.52,0.21-2.29,0.2
			l-66.56-0.29l0.04-1.33l36.97,0.12l-0.04-4.6l-21.03-0.04l0.06-1.1l20.91,0.06v-5.78l-29.34,0.01l-0.04-1.04l29.42-0.04
			l-0.06-5.11l-23.68,0.01v-1.1c16.91,0.01,33.83,0.01,50.74,0.02c0.71-0.12,4.1-0.75,6.36-3.86c2.32-3.2,1.84-6.79,1.64-7.84
			c-0.03-0.14-0.05-0.27-0.08-0.4c-0.82-3.57-3.39-6.27-6.05-7.34c-1.3-0.52-2.63-0.66-2.76-0.67c-0.85-0.08-1.49-0.01-1.69-0.01
			c-25.29-0.23-43.54-0.56-46.93-0.77c-1.03-0.07-2.59-0.25-4.4-0.89c-1.92-0.68-3.35-1.64-4.27-2.36c1.16-2.45,3.35-6.23,7.25-9.75
			c5.09-4.62,10.47-6.41,13.3-7.14l20.86,0.12c0.55,0.01,0.89,0.62,0.61,1.08l-7.22,11.78l4.02-0.01l12.27-11.65
			c0.75-0.71,1.75-1.11,2.8-1.1l6.74,0.05c0.44,0,0.86,0.03,1.3,0.1c3.08,0.46,7.74,1.64,12.41,4.82c2.24,1.52,5.41,4.19,8.04,8.35
			c1.58,2.5,2.52,4.83,3.07,6.56C251.27,522.08,252.09,525.92,251.92,530.63z"/>
		<path d="M159.91,484.34c1.11,1.83,2.65,3.99,4.76,6.15c3.53,3.63,7.22,5.81,9.86,7.08c-2.65,1-6.53,2.84-10.33,6.27
			c-2.33,2.1-4.02,4.25-5.22,6.03c-1.12-1.61-3.49-5.45-3.83-10.91c-0.4-6.29,2.13-10.9,3.13-12.53L159.91,484.34z"/>
	</g>
</g>
<g id="Layer_4">
</g>
</svg>
