<svg xmlns="http://www.w3.org/2000/svg" width="46" height="50" fill="none"><path fill="#0E0E0E" d="M33.12 11.009a15.058 15.058 0 0 0-11.852-3.77 15.17 15.17 0 0 0-5.41 28.46v8.944a1.788 1.788 0 0 0 1.785 1.786h1.786v1.785A1.788 1.788 0 0 0 21.214 50h3.572a1.788 1.788 0 0 0 1.785-1.786V46.43h1.786a1.788 1.788 0 0 0 1.786-1.786V35.7a15.163 15.163 0 0 0 2.978-24.69Zm-4.763 28.277v1.785H17.643v-1.785h10.714Zm-3.57 8.928h-3.573V46.43h3.572l.001 1.785Zm.892-3.571h-8.036v-1.786h10.714v1.786H25.68Zm3.18-10.293a.892.892 0 0 0-.502.802V37.5h-4.464v-4.094l2.417-2.418a.893.893 0 0 0-1.263-1.262L23 31.773l-2.047-2.047a.893.893 0 0 0-1.263 1.262l2.417 2.418V37.5h-4.464v-2.348a.891.891 0 0 0-.501-.802 13.384 13.384 0 0 1 5.876-25.423 13.24 13.24 0 0 1 8.912 3.412 13.378 13.378 0 0 1-3.072 22.011ZM23 5.357a.893.893 0 0 0 .893-.893V.893a.893.893 0 0 0-1.786 0v3.571a.893.893 0 0 0 .893.893ZM9.742 10.326a.894.894 0 1 0 1.262-1.263L8.48 6.538A.893.893 0 1 0 7.216 7.8l2.526 2.526ZM5.143 21.429H1.57a.893.893 0 0 0 0 1.785h3.572a.893.893 0 0 0 0-1.785Z"/><path fill="#0E0E0E" d="m9.742 34.317-2.526 2.526a.892.892 0 1 0 1.263 1.262l2.526-2.525a.893.893 0 0 0-1.263-1.263ZM37.521 6.538l-2.525 2.525a.893.893 0 1 0 1.262 1.263L38.784 7.8a.894.894 0 0 0-.628-1.535.893.893 0 0 0-.635.273Zm-1.263 27.779a.893.893 0 0 0-1.262 1.263l2.525 2.525a.893.893 0 0 0 1.263-1.262l-2.526-2.526Zm8.171-12.888h-3.572a.893.893 0 0 0 0 1.785h3.572a.893.893 0 0 0 0-1.785Z"/></svg>