<svg xmlns="http://www.w3.org/2000/svg" width="57" height="48" fill="none"><path stroke="#0E0E0E" stroke-linecap="round" stroke-linejoin="round" stroke-width="2.5" d="M22.118 40.605c-1.061 2.857 1.052 5.895 4.099 5.895h22.018M30.774 26.903c.59-.186.884-.28 1.182-.356a11.6 11.6 0 0 1 2.291-.353c.308-.017.617-.017 1.235-.017h.684c5.662 0 8.493 0 10.854 1.119a11.62 11.62 0 0 1 3.133 2.179c1.87 1.823 2.857 4.477 4.828 9.785l.134.36M17.257 13.113a5.806 5.806 0 1 1 0-11.613 5.806 5.806 0 0 1 0 11.613Zm21.775 5.806a5.806 5.806 0 1 1 0-11.613 5.806 5.806 0 0 1 0 11.613ZM10.378 40.693h13.294c1.59 0 2.385 0 2.976-.098a7.258 7.258 0 0 0 5.936-8.537c-.114-.588-.39-1.333-.944-2.823-.461-1.24-.691-1.86-.96-2.402a11.612 11.612 0 0 0-9.203-6.4c-.6-.062-1.262-.062-2.585-.062h-3.734c-1.323 0-1.985 0-2.585.063a11.612 11.612 0 0 0-9.204 6.4c-.268.54-.498 1.16-.959 2.4-.553 1.491-.83 2.236-.944 2.824a7.258 7.258 0 0 0 5.936 8.537c.591.099 1.386.099 2.975.099Z"/></svg>