<?xml version="1.0" encoding="utf-8"?>
<!-- Generator: Adobe Illustrator 26.0.1, SVG Export Plug-In . SVG Version: 6.00 Build 0)  -->
<svg version="1.1" xmlns="http://www.w3.org/2000/svg" xmlns:xlink="http://www.w3.org/1999/xlink" x="0px" y="0px"
	 viewBox="150 410 720 155" style="enable-background:new 0 0 1024 1024;" xml:space="preserve">
<style type="text/css">
	.st0{fill:url(#SVGID_1_);}
	.st1{fill:url(#SVGID_00000159459337716194457100000017673206088540780974_);}
	.st2{fill:url(#SVGID_00000034061012321294792320000012056087483246209978_);}
	.st3{fill:url(#SVGID_00000080193690134308463110000016469782099513387424_);}
	.st4{fill:url(#SVGID_00000065041740674641695170000018398966630761309629_);}
	.st5{fill:url(#SVGID_00000097476077604912340820000017976744624312080286_);}
	.st6{fill:url(#SVGID_00000183244142554389679200000006846882036349091762_);}
	.st7{fill:url(#SVGID_00000158001369350545415660000008358999547776965551_);}
	.st8{fill:url(#SVGID_00000093869420915467917450000004210575854522459556_);}
	.st9{fill:url(#SVGID_00000078036996217378952390000004615447629461703613_);}
	.st10{fill:url(#SVGID_00000047760026005807014150000008085875908850226838_);}
	.st11{fill:url(#SVGID_00000073712858858654292940000010682724751647470725_);}
	.st12{fill:url(#SVGID_00000013905068620430715110000006137067368470805155_);}
	.st13{fill:url(#SVGID_00000044136859315250132410000015656330580763647914_);}
	.st14{fill:url(#SVGID_00000034066824027425232370000012589322018373291922_);}
	.st15{fill:url(#SVGID_00000130609196856846121290000015831648441240967823_);}
	.st16{fill:url(#SVGID_00000034091044431829698850000005405395973653031046_);}
	.st17{fill:url(#SVGID_00000126324905965752420470000001911635885344165795_);}
	.st18{fill:url(#SVGID_00000015352246183790713510000011147712950149584574_);}
	.st19{fill:url(#SVGID_00000078752071583084754180000010475325820224179360_);}
	.st20{fill:url(#SVGID_00000159456250445834873920000006531467934440612262_);}
	.st21{fill:url(#SVGID_00000058549140756139822830000011558470463566055101_);}
	.st22{fill:url(#SVGID_00000108288471428436749870000007277010898367612069_);}
	.st23{fill:url(#SVGID_00000001662063477715946100000011757579403466613936_);}
	.st24{fill:url(#SVGID_00000148636480724874033160000017792867191324972989_);}
	.st25{fill:url(#SVGID_00000009571827764242537840000007756606495105396905_);}
	.st26{fill:url(#SVGID_00000058580934702024189270000001765508613498657179_);}
	.st27{fill:url(#SVGID_00000082357946632364737450000018291487353382534302_);}
	.st28{fill:url(#SVGID_00000149367333530521712090000011803044607808407428_);}
	.st29{fill:url(#SVGID_00000041254944764773936700000012826156157303857071_);}
	.st30{fill:url(#SVGID_00000102535811071111781190000001272819747165475980_);}
	.st31{fill:url(#SVGID_00000080923672145062738860000017176310032900591005_);}
	.st32{fill:url(#SVGID_00000163768664470222583810000008091954165855841938_);}
	.st33{fill:url(#SVGID_00000066508858021155584760000002345240902636180911_);}
	.st34{fill:url(#SVGID_00000083777064574861796210000009149031757215845548_);}
	.st35{fill:url(#SVGID_00000143593777495317170500000013218609219585759151_);}
	.st36{fill:url(#SVGID_00000102516948644703149160000010412614097068640147_);}
	.st37{fill:url(#SVGID_00000098920234945024554410000010567751050262234044_);}
	.st38{fill:url(#SVGID_00000168096176389811539900000004148203195601954962_);}
	.st39{fill:url(#SVGID_00000072999509786219221630000002700143303730681268_);}
	.st40{fill:url(#SVGID_00000060728969459027567880000007024058167498889136_);}
	.st41{fill:url(#SVGID_00000055696770431046641150000013224968197289392012_);}
	.st42{fill:url(#SVGID_00000054247592880076572150000005339766171296073360_);}
</style>
<g id="Layer_1">
</g>
<g id="Layer_3">
	<g>
		<path d="M249.32,474.71l-6.4,18.21c-0.34,0.96-1.23,1.6-2.24,1.62l-21.28,0.41c-0.75,0.01-1.47-0.28-1.99-0.82l-11.87-12.16h-4.02
			l7.24,11.78c0.29,0.47-0.05,1.06-0.59,1.07l-20.23,0.14c-0.43,0-0.86-0.05-1.27-0.16c-2.95-0.82-7.94-2.67-12.68-6.95
			c-3.9-3.52-6.1-7.3-7.27-9.75c0.92-0.72,2.35-1.67,4.27-2.36c1.73-0.62,3.28-0.83,4.39-0.89L249.32,474.71z"/>
		<path d="M251.92,530.63c-0.1,2.72-0.56,16.19-11.25,24.48c-4.38,3.39-8.99,4.84-12.48,5.48c-0.76,0.14-1.52,0.21-2.29,0.2
			l-66.56-0.29l0.04-1.33l36.97,0.12l-0.04-4.6l-21.03-0.04l0.06-1.1l20.91,0.06v-5.78l-29.34,0.01l-0.04-1.04l29.42-0.04
			l-0.06-5.11l-23.68,0.01v-1.1c16.91,0.01,33.83,0.01,50.74,0.02c0.71-0.12,4.1-0.75,6.36-3.86c2.32-3.2,1.84-6.79,1.64-7.84
			c-0.03-0.14-0.05-0.27-0.08-0.4c-0.82-3.57-3.39-6.27-6.05-7.34c-1.3-0.52-2.63-0.66-2.76-0.67c-0.85-0.08-1.49-0.01-1.69-0.01
			c-25.29-0.23-43.54-0.56-46.93-0.77c-1.03-0.07-2.59-0.25-4.4-0.89c-1.92-0.68-3.35-1.64-4.27-2.36c1.16-2.45,3.35-6.23,7.25-9.75
			c5.09-4.62,10.47-6.41,13.3-7.14l20.86,0.12c0.55,0.01,0.89,0.62,0.61,1.08l-7.22,11.78l4.02-0.01l12.27-11.65
			c0.75-0.71,1.75-1.11,2.8-1.1l6.74,0.05c0.44,0,0.86,0.03,1.3,0.1c3.08,0.46,7.74,1.64,12.41,4.82c2.24,1.52,5.41,4.19,8.04,8.35
			c1.58,2.5,2.52,4.83,3.07,6.56C251.27,522.08,252.09,525.92,251.92,530.63z"/>
		<path d="M159.91,484.34c1.11,1.83,2.65,3.99,4.76,6.15c3.53,3.63,7.22,5.81,9.86,7.08c-2.65,1-6.53,2.84-10.33,6.27
			c-2.33,2.1-4.02,4.25-5.22,6.03c-1.12-1.61-3.49-5.45-3.83-10.91c-0.4-6.29,2.13-10.9,3.13-12.53L159.91,484.34z"/>
		<g>
			<line x1="276.86" y1="560.56" x2="276.86" y2="474.13"/>
			<rect x="266.55" y="474.13" width="20.63" height="86.44"/>
		</g>
		<polygon points="315.73,560.53 281.8,514.43 316.46,474.09 340.52,473.93 308.12,515.23 341.37,560.51 		"/>
		<path d="M513.17,560.55l0.09-51.8c0,0,0,0-0.01,0L494,560.11c-0.1,0.28-0.37,0.46-0.66,0.46l-16.91-0.09c0,0,0,0-0.01,0
			l-19.5-54.69c0,0,0,0-0.01,0l-0.43,54.89c0,0.01,0,0.01-0.01,0.01l-20.16-0.13c-0.01,0-0.01,0-0.01-0.01l0.72-86.06
			c0-0.01,0-0.01,0.01-0.01l20.11,0.16l3.87,0.08l24.29,60.22c0,0,0,0,0,0l24.22-59.98c0,0,0,0,0.01,0l3.77-0.04l19.34-0.08
			c0,0,0,0,0,0l1.31,85.8c0,0.01,0,0.01-0.01,0.01L513.17,560.55C513.17,560.55,513.17,560.55,513.17,560.55z"/>
		<path d="M708.48,500.11c-0.66-14.69-15.62-22.09-17.02-22.75c-5.57-2.64-10.48-2.71-16.55-2.8c-16.66-0.25-32.3-0.06-32.74-0.08
			c0.25,28.74,0.15,57.24,0.41,85.97h19.34l0.04-31.5c0-0.5,0.38-0.92,0.88-0.95c1.28-0.08,2.35-0.12,3.61-0.2
			c0.27-0.02,0.53,0.12,0.66,0.36l18.29,32.42l23.21-0.12c-6.69-11.34-13.38-22.67-20.07-34.01
			C700.91,522.4,708.98,511.35,708.48,500.11z M661.91,513.25v-20.97c3.12-0.31,6.59-0.5,10.36-0.46c3.2,0.04,6.18,0.24,8.9,0.53
			c0.89,0.32,3.71,1.47,5.57,4.52c0.42,0.69,1.52,2.68,1.55,5.3c0.03,3.95-2.11,7.5-4.95,9.35c-1.78,1.16-3.51,1.45-5.41,1.68
			C674.24,513.63,668.81,513.95,661.91,513.25z"/>
		<polygon points="776.12,544.72 742.63,544.91 742.48,525.15 771.54,525.36 771.64,509.67 742.37,509.46 742.24,491.04 
			776.04,490.85 776.12,487.23 776.12,475.85 722.79,475.56 723.4,560.56 776.12,560.4 		"/>
		<path d="M488.65,433.71c-6.16,1.23-15.43,3.62-25.8,8.64c-32.3,15.62-47.29,43.09-52.56,52.76c-8.85,16.23-11.3,29.29-11.76,31.88
			c-1.09,6.14-1.51,12.4-1.62,14.18c-0.44,7.09-0.28,13.54,0.15,19.21c-7.35,0.01-14.7,0.03-22.04,0.04
			c-0.15-5.18-0.18-10.59-0.05-16.2c0.09-4.67,0.3-9.19,0.57-13.54c-9.6-18.75-19.22-37.49-28.83-56.24l23.39,0.12
			c5.17,9.54,10.35,19.1,15.53,28.64c6.01-10.87,16.04-25.72,32.16-39.41c6.82-5.79,20.12-16.86,40.88-23.98
			C470.64,435.69,481.18,434.24,488.65,433.71z"/>
		<g>
			<path d="M518.99,428.4c0.25,0.42,0.3,1.05,0.07,1.55c-0.43,0.93-1.71,1.14-4.1,1.52c-0.5,0.08-1.41,0.19-3.23,0.42
				c-0.45,0.06-0.82,0.1-1.07,0.13c-0.09,0-0.24,0.01-0.39,0.1c-0.25,0.16-1.15,1.75-2.85,4.85c-1.28,2.35-2.78,5.17-5.13,9.62
				c-0.51,0-1.23,0.05-1.74,0.05l5.17-13.19c0.14-0.32-0.12-0.69-0.48-0.69l-11.49,0.42c-0.36,0-0.69,0.16-0.91,0.42l-3.62,4.29
				l1.03-4.76l-1.59-3.77l4.06,2.51c0.32,0.2,0.71,0.26,1.09,0.14l10.44-3.19c0.4-0.12,0.57-0.63,0.32-0.97l-3.25-4.36h4l3.62,3.47
				c0.22,0.2,0.51,0.32,0.81,0.32c0.55,0,1.13,0,1.68,0.02c0.02,0,0.02,0,0.02,0s-0.01,0-0.01,0c0,0,0.4-0.02,0.53-0.02
				c2.48-0.08,3.65,0,3.68,0h0C516.2,427.29,518.34,427.29,518.99,428.4z"/>
			<polygon points="505.32,423.49 497.03,415.55 495.82,416.15 501.31,423.49 			"/>
		</g>
		<path d="M545.83,558.67l29.88-83.04c0.2-0.56,0.72-0.93,1.31-0.93h21.56c0.59,0,1.11,0.37,1.31,0.93l29.77,82.81
			c0.33,0.92-0.34,1.89-1.31,1.89h-18.2c-0.6,0-1.13-0.39-1.32-0.96l-19.57-58.44c-0.43-1.27-2.2-1.28-2.64-0.01l-20.15,58.62
			c-0.19,0.57-0.72,0.94-1.31,0.95l-18.01,0.07C546.18,560.57,545.5,559.6,545.83,558.67z"/>
		<g>
			<path d="M161.55,607.97h-4.38v-21.48h4.38V607.97z"/>
			<path d="M195.84,608.07l-15.17-15.06h-0.06c0.03,1.26,0.06,2.42,0.08,3.48c0.01,0.45,0.02,0.9,0.03,1.35
				c0.01,0.46,0.01,0.87,0.02,1.26c0.01,0.39,0.01,0.72,0.02,1.01c0.01,0.29,0.01,0.49,0.01,0.62v7.24h-2.56v-21.63h1.91
				l15.19,15.02h0.02c-0.03-1.16-0.05-2.25-0.06-3.25c0-0.43,0-0.87-0.01-1.31c-0.01-0.44-0.01-0.86-0.02-1.26
				c-0.01-0.4-0.01-0.77-0.01-1.1s0-0.61,0-0.82v-7.13h2.56v21.59H195.84z"/>
			<path d="M218.88,607.97v-19.19l-6.61-0.11l0.21-2.18h17.39l-0.21,2.12l-6.4,0.17v19.19H218.88z"/>
			<path d="M257.28,607.97h-12.94v-21.48h12.48l-0.21,2.18l-7.89,0.11v6.98l7.43,0.08l-0.21,1.99l-7.22,0.17v7.68l8.77,0.17
				L257.28,607.97z"/>
			<path d="M278.51,599.12h-1.47v8.85h-4.38v-21.44c0.43-0.03,0.91-0.06,1.42-0.08s1.03-0.05,1.57-0.07
				c0.54-0.02,1.08-0.04,1.64-0.05c0.55-0.01,1.08-0.02,1.58-0.02c2.6,0,4.57,0.48,5.92,1.43c1.34,0.95,2.01,2.43,2.01,4.45
				c0,0.9-0.12,1.68-0.35,2.35c-0.23,0.67-0.53,1.26-0.91,1.75c-0.38,0.5-0.81,0.91-1.3,1.25c-0.49,0.34-1,0.62-1.53,0.86
				c0.64,1.11,1.25,2.15,1.84,3.13c0.58,0.98,1.16,1.84,1.73,2.57c0.57,0.73,1.16,1.31,1.76,1.74c0.6,0.43,1.24,0.64,1.93,0.64h0.15
				v1.36c-0.35,0.11-0.75,0.2-1.2,0.27c-0.45,0.07-0.95,0.1-1.51,0.1c-0.53,0-1.02-0.03-1.46-0.08c-0.44-0.06-0.85-0.16-1.24-0.32
				c-0.39-0.16-0.76-0.39-1.13-0.7c-0.37-0.31-0.75-0.71-1.14-1.22s-0.81-1.12-1.26-1.86c-0.45-0.73-0.94-1.61-1.47-2.63
				L278.51,599.12z M277.8,597c0.62,0,1.21-0.07,1.77-0.22c0.57-0.15,1.01-0.33,1.33-0.56c0.17-0.11,0.34-0.25,0.5-0.41
				c0.17-0.16,0.32-0.39,0.45-0.67c0.13-0.29,0.24-0.65,0.31-1.08c0.08-0.43,0.12-0.98,0.12-1.64c0-0.73-0.09-1.34-0.26-1.85
				c-0.18-0.5-0.43-0.9-0.78-1.21c-0.34-0.3-0.77-0.52-1.27-0.65c-0.5-0.13-1.09-0.2-1.76-0.2c-0.15,0-0.34,0.01-0.57,0.02
				s-0.43,0.04-0.61,0.06V597H277.8z"/>
			<path d="M321.58,608.07l-15.17-15.06h-0.06c0.03,1.26,0.06,2.42,0.08,3.48c0.01,0.45,0.02,0.9,0.03,1.35
				c0.01,0.46,0.01,0.87,0.02,1.26c0.01,0.39,0.01,0.72,0.02,1.01c0.01,0.29,0.01,0.49,0.01,0.62v7.24h-2.56v-21.63h1.91
				l15.19,15.02h0.02c-0.03-1.16-0.05-2.25-0.06-3.25c0-0.43,0-0.87-0.01-1.31c-0.01-0.44-0.01-0.86-0.02-1.26
				c-0.01-0.4-0.01-0.77-0.01-1.1s0-0.61,0-0.82v-7.13h2.56v21.59H321.58z"/>
			<path d="M353.72,607.97l-2.52-7.24l-8.08,0.11l-2.62,7.13h-2.77l8.52-21.29l4.24-0.73l7.93,22.03H353.72z M350.51,598.7
				l-3.23-9.27l-3.4,9.27H350.51z"/>
			<path d="M375.34,607.97v-19.19l-6.61-0.11l0.21-2.18h17.39l-0.21,2.12l-6.4,0.17v19.19H375.34z"/>
			<path d="M405.19,607.97h-4.38v-21.48h4.38V607.97z"/>
			<path d="M442.57,597.15c0,1.71-0.23,3.24-0.68,4.61c-0.46,1.37-1.14,2.54-2.05,3.5c-0.91,0.97-2.04,1.71-3.4,2.22
				c-1.36,0.52-2.94,0.78-4.74,0.78c-1.85,0-3.43-0.27-4.74-0.8c-1.31-0.53-2.4-1.28-3.25-2.25c-0.85-0.97-1.48-2.14-1.88-3.5
				c-0.4-1.36-0.6-2.88-0.6-4.56s0.21-3.19,0.62-4.53c0.41-1.34,1.05-2.49,1.9-3.43c0.85-0.94,1.94-1.67,3.26-2.17
				c1.32-0.5,2.9-0.76,4.73-0.76c1.8,0,3.38,0.25,4.73,0.76c1.35,0.5,2.48,1.23,3.38,2.17c0.9,0.94,1.58,2.09,2.04,3.43
				C442.35,593.96,442.57,595.47,442.57,597.15z M437.96,597.17c0-1.31-0.12-2.49-0.36-3.52c-0.24-1.03-0.61-1.92-1.11-2.64
				c-0.5-0.73-1.15-1.28-1.93-1.67c-0.78-0.38-1.72-0.58-2.81-0.58c-0.95,0-1.84,0.1-2.65,0.29c-0.82,0.2-1.47,0.48-1.94,0.84
				c-0.48,0.36-0.82,1.15-1.04,2.36c-0.22,1.21-0.33,2.85-0.33,4.92c0,1.29,0.1,2.45,0.29,3.5c0.2,1.05,0.52,1.95,0.98,2.71
				c0.45,0.76,1.06,1.34,1.81,1.75c0.76,0.41,1.7,0.62,2.83,0.62c1.16,0,2.12-0.1,2.88-0.3c0.76-0.2,1.4-0.47,1.92-0.81
				c0.24-0.15,0.45-0.47,0.63-0.93c0.18-0.47,0.33-1.04,0.45-1.71s0.21-1.42,0.27-2.25C437.93,598.9,437.96,598.05,437.96,597.17z"
				/>
			<path d="M476.24,608.07l-15.17-15.06h-0.06c0.03,1.26,0.06,2.42,0.08,3.48c0.01,0.45,0.02,0.9,0.03,1.35
				c0.01,0.46,0.01,0.87,0.02,1.26c0.01,0.39,0.01,0.72,0.02,1.01c0.01,0.29,0.01,0.49,0.01,0.62v7.24h-2.56v-21.63h1.91
				l15.19,15.02h0.02c-0.03-1.16-0.05-2.25-0.06-3.25c0-0.43,0-0.87-0.01-1.31c-0.01-0.44-0.01-0.86-0.02-1.26
				c-0.01-0.4-0.01-0.77-0.01-1.1s0-0.61,0-0.82v-7.13h2.56v21.59H476.24z"/>
			<path d="M508.38,607.97l-2.52-7.24l-8.08,0.11l-2.62,7.13h-2.77l8.52-21.29l4.24-0.73l7.93,22.03H508.38z M505.17,598.7
				l-3.23-9.27l-3.4,9.27H505.17z"/>
			<path d="M527.28,607.97v-21.48h4.38v19.21h8.16l-0.21,2.27H527.28z"/>
			<path d="M581.46,608.26c-1.68,0-3.11-0.27-4.29-0.81c-1.18-0.54-2.14-1.3-2.87-2.29c-0.73-0.99-1.27-2.16-1.6-3.53
				c-0.34-1.37-0.5-2.89-0.5-4.57c0-1.36,0.16-2.57,0.49-3.63c0.33-1.06,0.77-2,1.33-2.8c0.56-0.8,1.21-1.49,1.96-2.04
				s1.54-1.01,2.36-1.36c0.83-0.35,1.67-0.6,2.54-0.76c0.87-0.15,1.71-0.23,2.52-0.23c0.5,0,1.04,0.02,1.6,0.05
				c0.57,0.03,1.12,0.08,1.65,0.13c0.53,0.05,1.03,0.11,1.49,0.18c0.46,0.07,0.84,0.14,1.13,0.21l-0.82,3.06
				c-0.29-0.08-0.71-0.18-1.25-0.29c-0.54-0.11-1.12-0.21-1.73-0.3c-0.62-0.09-1.22-0.17-1.81-0.23c-0.59-0.06-1.09-0.09-1.5-0.09
				c-0.45,0-0.84,0.01-1.17,0.04c-0.34,0.03-0.64,0.08-0.92,0.15c-0.28,0.07-0.55,0.16-0.81,0.28c-0.26,0.12-0.52,0.28-0.79,0.47
				c-0.67,0.45-1.12,1.3-1.35,2.57c-0.23,1.27-0.35,2.84-0.35,4.71c0,2.87,0.45,5.04,1.34,6.53c0.9,1.49,2.34,2.23,4.34,2.23
				c0.56,0,1.14-0.02,1.74-0.06c0.6-0.04,1.2-0.11,1.79-0.19c0.59-0.08,1.17-0.19,1.74-0.31c0.57-0.13,1.1-0.27,1.61-0.44v1.78
				c-0.56,0.25-1.16,0.47-1.81,0.66c-0.65,0.19-1.32,0.35-2,0.48c-0.69,0.13-1.37,0.23-2.06,0.3
				C582.77,608.23,582.11,608.26,581.46,608.26z"/>
			<path d="M618.24,607.97l-2.52-7.24l-8.08,0.11l-2.62,7.13h-2.77l8.52-21.29l4.24-0.73l7.93,22.03H618.24z M615.03,598.7
				l-3.23-9.27l-3.4,9.27H615.03z"/>
			<path d="M642.99,599.12h-1.47v8.85h-4.38v-21.44c0.43-0.03,0.91-0.06,1.42-0.08s1.03-0.05,1.57-0.07
				c0.54-0.02,1.08-0.04,1.64-0.05c0.55-0.01,1.08-0.02,1.58-0.02c2.6,0,4.57,0.48,5.92,1.43c1.34,0.95,2.01,2.43,2.01,4.45
				c0,0.9-0.12,1.68-0.35,2.35c-0.23,0.67-0.53,1.26-0.91,1.75c-0.38,0.5-0.81,0.91-1.3,1.25s-1,0.62-1.53,0.86
				c0.64,1.11,1.25,2.15,1.84,3.13c0.58,0.98,1.16,1.84,1.73,2.57c0.57,0.73,1.16,1.31,1.76,1.74c0.6,0.43,1.24,0.64,1.93,0.64h0.15
				v1.36c-0.35,0.11-0.75,0.2-1.2,0.27c-0.45,0.07-0.95,0.1-1.51,0.1c-0.53,0-1.02-0.03-1.46-0.08c-0.44-0.06-0.85-0.16-1.24-0.32
				c-0.39-0.16-0.76-0.39-1.13-0.7c-0.37-0.31-0.75-0.71-1.14-1.22c-0.39-0.5-0.81-1.12-1.26-1.86c-0.45-0.73-0.94-1.61-1.47-2.63
				L642.99,599.12z M642.28,597c0.62,0,1.21-0.07,1.77-0.22c0.57-0.15,1.01-0.33,1.33-0.56c0.17-0.11,0.34-0.25,0.5-0.41
				c0.17-0.16,0.32-0.39,0.45-0.67c0.13-0.29,0.24-0.65,0.31-1.08c0.08-0.43,0.12-0.98,0.12-1.64c0-0.73-0.09-1.34-0.26-1.85
				c-0.18-0.5-0.43-0.9-0.78-1.21c-0.34-0.3-0.77-0.52-1.27-0.65c-0.5-0.13-1.09-0.2-1.76-0.2c-0.15,0-0.34,0.01-0.57,0.02
				s-0.43,0.04-0.61,0.06V597H642.28z"/>
			<path d="M681.9,599.68l-4.78-0.25l0.23-1.74h9.02v8.77c-0.49,0.21-1.09,0.42-1.8,0.63c-0.71,0.21-1.49,0.4-2.33,0.58
				c-0.84,0.18-1.7,0.32-2.59,0.43c-0.89,0.11-1.75,0.17-2.59,0.17c-1.68,0-3.1-0.27-4.28-0.81c-1.17-0.54-2.13-1.3-2.86-2.29
				c-0.73-0.99-1.27-2.16-1.61-3.53c-0.34-1.37-0.5-2.89-0.5-4.57s0.29-3.19,0.86-4.52c0.57-1.34,1.38-2.47,2.42-3.41
				c1.04-0.94,2.29-1.65,3.74-2.15c1.45-0.5,3.06-0.74,4.8-0.74c0.43,0,0.92,0.01,1.46,0.04c0.54,0.03,1.07,0.07,1.59,0.13
				c0.52,0.06,1.02,0.12,1.49,0.18c0.47,0.06,0.86,0.14,1.16,0.22l-0.76,3.13c-0.36-0.11-0.82-0.23-1.37-0.35
				c-0.55-0.12-1.13-0.22-1.74-0.31c-0.61-0.09-1.22-0.17-1.82-0.23c-0.61-0.06-1.15-0.09-1.63-0.09c-0.78,0-1.52,0.06-2.21,0.18
				c-0.69,0.12-1.33,0.4-1.92,0.83c-0.32,0.24-0.58,0.61-0.78,1.11c-0.2,0.5-0.35,1.08-0.46,1.73c-0.11,0.65-0.19,1.35-0.23,2.1
				c-0.04,0.75-0.06,1.48-0.06,2.19c0,2.87,0.37,5.06,1.12,6.59c0.75,1.53,1.93,2.29,3.56,2.29c0.41,0,0.84-0.01,1.29-0.04
				c0.45-0.03,0.9-0.07,1.34-0.13c0.44-0.06,0.85-0.11,1.24-0.17c0.38-0.06,0.72-0.12,1-0.19V599.68z"/>
			<path d="M723.31,597.15c0,1.71-0.23,3.24-0.68,4.61c-0.46,1.37-1.14,2.54-2.05,3.5c-0.91,0.97-2.04,1.71-3.4,2.22
				c-1.36,0.52-2.94,0.78-4.74,0.78c-1.85,0-3.43-0.27-4.74-0.8c-1.31-0.53-2.4-1.28-3.25-2.25c-0.85-0.97-1.48-2.14-1.88-3.5
				c-0.4-1.36-0.6-2.88-0.6-4.56s0.21-3.19,0.62-4.53s1.05-2.49,1.9-3.43c0.85-0.94,1.94-1.67,3.26-2.17
				c1.32-0.5,2.9-0.76,4.73-0.76c1.8,0,3.38,0.25,4.73,0.76c1.35,0.5,2.48,1.23,3.38,2.17c0.9,0.94,1.58,2.09,2.04,3.43
				C723.08,593.96,723.31,595.47,723.31,597.15z M718.7,597.17c0-1.31-0.12-2.49-0.36-3.52s-0.61-1.92-1.11-2.64
				c-0.5-0.73-1.15-1.28-1.93-1.67c-0.78-0.38-1.72-0.58-2.81-0.58c-0.95,0-1.84,0.1-2.65,0.29c-0.82,0.2-1.47,0.48-1.94,0.84
				c-0.48,0.36-0.82,1.15-1.04,2.36c-0.22,1.21-0.33,2.85-0.33,4.92c0,1.29,0.1,2.45,0.29,3.5s0.52,1.95,0.98,2.71
				c0.45,0.76,1.06,1.34,1.81,1.75c0.76,0.41,1.7,0.62,2.83,0.62c1.16,0,2.12-0.1,2.88-0.3c0.76-0.2,1.4-0.47,1.92-0.81
				c0.24-0.15,0.45-0.47,0.63-0.93c0.18-0.47,0.33-1.04,0.45-1.71c0.12-0.67,0.21-1.42,0.27-2.25
				C718.66,598.9,718.7,598.05,718.7,597.17z"/>
			<path d="M757.5,607.97v-21.48h4.38v19.21h8.16l-0.21,2.27H757.5z"/>
			<path d="M786.58,602.7l2.89,2.87l-2.89,2.87l-2.87-2.87L786.58,602.7z"/>
			<path d="M804.95,607.97v-21.48h4.38v19.21h8.16l-0.21,2.27H804.95z"/>
			<path d="M834.03,602.7l2.89,2.87l-2.89,2.87l-2.87-2.87L834.03,602.7z"/>
			<path d="M861.02,608.26c-1.68,0-3.11-0.27-4.29-0.81c-1.18-0.54-2.14-1.3-2.87-2.29c-0.73-0.99-1.27-2.16-1.6-3.53
				c-0.34-1.37-0.5-2.89-0.5-4.57c0-1.36,0.16-2.57,0.49-3.63c0.33-1.06,0.77-2,1.33-2.8c0.56-0.8,1.21-1.49,1.96-2.04
				s1.54-1.01,2.36-1.36c0.83-0.35,1.67-0.6,2.54-0.76c0.87-0.15,1.71-0.23,2.52-0.23c0.5,0,1.04,0.02,1.6,0.05
				c0.57,0.03,1.12,0.08,1.65,0.13c0.53,0.05,1.03,0.11,1.49,0.18c0.46,0.07,0.84,0.14,1.13,0.21l-0.82,3.06
				c-0.29-0.08-0.71-0.18-1.25-0.29c-0.54-0.11-1.12-0.21-1.73-0.3c-0.62-0.09-1.22-0.17-1.81-0.23c-0.59-0.06-1.09-0.09-1.5-0.09
				c-0.45,0-0.84,0.01-1.17,0.04c-0.34,0.03-0.64,0.08-0.92,0.15s-0.55,0.16-0.81,0.28c-0.26,0.12-0.52,0.28-0.79,0.47
				c-0.67,0.45-1.12,1.3-1.35,2.57c-0.23,1.27-0.35,2.84-0.35,4.71c0,2.87,0.45,5.04,1.34,6.53c0.9,1.49,2.34,2.23,4.34,2.23
				c0.56,0,1.14-0.02,1.74-0.06s1.2-0.11,1.79-0.19c0.59-0.08,1.17-0.19,1.74-0.31c0.57-0.13,1.1-0.27,1.6-0.44v1.78
				c-0.56,0.25-1.16,0.47-1.81,0.66c-0.65,0.19-1.32,0.35-2,0.48c-0.69,0.13-1.37,0.23-2.06,0.3
				C862.33,608.23,861.67,608.26,861.02,608.26z"/>
		</g>
		<g>
			<path d="M784.81,475.75L806,515.36h16.98c-1.23-2.37-16.26-31.48-20.47-39.61H784.81z"/>
			<g>
				<path d="M806.5,475.75l21.19,39.61h16.98c-1.23-2.37-16.26-31.48-20.47-39.61H806.5z"/>
				<path d="M850.44,475.75c-4.2,8.13-19.24,37.24-20.47,39.61h16.98l21.19-39.61H850.44z"/>
			</g>
			<g>
				<path d="M823.15,560.69c2.78-5.36,19.86-38.43,21.17-40.97h-16.98l-21.92,40.97H823.15z"/>
				<path d="M868.53,560.69l-21.92-40.97h-16.98c1.31,2.54,18.4,35.61,21.17,40.97H868.53z"/>
			</g>
			<path d="M801.74,560.69l21.57-40.92h-17.4c-1.11,2.14-18.21,35.24-21.15,40.92H801.74z"/>
		</g>
	</g>
</g>
<g id="Layer_4">
</g>
</svg>
