<svg xmlns="http://www.w3.org/2000/svg" width="46" height="46" fill="none"><path fill="#000" d="M40.22 26.425A19.105 19.105 0 0 0 25.115 7.77V5.914a1.627 1.627 0 0 0 1.774-1.607v-2.2A1.609 1.609 0 0 0 25.283.5h-8.275a1.61 1.61 0 0 0-1.607 1.607v2.2a1.655 1.655 0 0 0 1.896 1.607v1.828a18.981 18.981 0 0 0-7.27 3.2L8.72 9.634a1.612 1.612 0 0 0 .054-2.327l-.905-.904a1.614 1.614 0 0 0-2.273-.001L1.128 10.87a1.599 1.599 0 0 0-.471 1.138c-.084.829.89 1.509 1.376 2.04a1.63 1.63 0 0 0 2.407-.134l1.293 1.293C-3.451 27.472 5.698 45.648 21.145 45.5A19.096 19.096 0 0 0 40.22 26.425ZM17.007 4.307v-2.2h8.275v2.2h-8.275Zm6.5 1.607v1.59a18.706 18.706 0 0 0-4.604-.016V5.914h4.605ZM3.17 12.912l-.905-.906 4.468-4.468.906.905-4.469 4.469Zm2.407-.134 2.008-2.008 1.17 1.172a19.245 19.245 0 0 0-2.013 2.001l-1.165-1.165Zm15.57 31.114A17.487 17.487 0 0 1 3.678 26.425c.96-23.172 33.977-23.164 34.933 0a17.487 17.487 0 0 1-17.467 17.467Z"/><path fill="#000" d="M21.145 12.764a13.676 13.676 0 0 0-13.66 13.661c.75 18.122 26.573 18.117 27.32 0a13.676 13.676 0 0 0-13.66-13.66Zm0 25.714A12.066 12.066 0 0 1 9.092 26.425c.661-15.99 23.447-15.986 24.107 0a12.066 12.066 0 0 1-12.054 12.053Zm18.498-2.621a.803.803 0 0 0 .804.803h4.098a.803.803 0 1 0 0-1.607h-4.098a.803.803 0 0 0-.804.804Zm4.902 3.615h-6.991a.804.804 0 0 0 0 1.608h6.99a.803.803 0 0 0 0-1.608Zm0 4.42h-12.11a.803.803 0 0 0 0 1.607h12.11a.804.804 0 0 0 0-1.607Z"/><path fill="#000" d="m27.064 22.17-8.29 6.8-3.481-3.577a.803.803 0 0 0-1.152 1.12l3.996 4.106a.804.804 0 0 0 1.085.061l8.86-7.267a.804.804 0 0 0-1.018-1.243Z"/></svg>